<mxfile host="app.diagrams.net" modified="2022-02-22T03:11:11.881Z" agent="5.0 (Macintosh; Intel Mac OS X 10_15_7) AppleWebKit/537.36 (KHTML, like Gecko) Chrome/98.0.4758.102 Safari/537.36" etag="8GXgbFx2ZjyR3fKpUCKL" version="16.6.2" type="github">
  <diagram id="YiOILoQo-43G-p-9hOoJ" name="Page-1">
    <mxGraphModel dx="1186" dy="684" grid="1" gridSize="10" guides="1" tooltips="1" connect="1" arrows="1" fold="1" page="1" pageScale="1" pageWidth="827" pageHeight="1169" math="0" shadow="0">
      <root>
        <mxCell id="0" />
        <mxCell id="1" parent="0" />
        <mxCell id="yz_HRgvOXt4mDNOBBEOG-1" value="" style="rounded=0;whiteSpace=wrap;html=1;dashed=1;" vertex="1" parent="1">
          <mxGeometry x="160" y="80" width="550" height="710" as="geometry" />
        </mxCell>
        <mxCell id="yz_HRgvOXt4mDNOBBEOG-3" value="Client/Tenant" style="shape=umlActor;verticalLabelPosition=bottom;verticalAlign=top;html=1;outlineConnect=0;dashed=1;" vertex="1" parent="1">
          <mxGeometry x="40" y="405" width="30" height="60" as="geometry" />
        </mxCell>
        <mxCell id="yz_HRgvOXt4mDNOBBEOG-4" value="Admin&lt;br&gt;" style="shape=umlActor;verticalLabelPosition=bottom;verticalAlign=top;html=1;outlineConnect=0;dashed=1;" vertex="1" parent="1">
          <mxGeometry x="740" y="380" width="30" height="60" as="geometry" />
        </mxCell>
        <mxCell id="yz_HRgvOXt4mDNOBBEOG-16" value="&lt;span&gt;JIRA create issue service&lt;/span&gt;" style="ellipse;whiteSpace=wrap;html=1;strokeWidth=2;" vertex="1" parent="1">
          <mxGeometry x="354" y="660" width="120" height="110" as="geometry" />
        </mxCell>
        <mxCell id="yz_HRgvOXt4mDNOBBEOG-24" value="&lt;span&gt;Request hunt and provide website URL need to check&amp;nbsp;&lt;/span&gt;vulnerability" style="ellipse;whiteSpace=wrap;html=1;strokeWidth=2;" vertex="1" parent="1">
          <mxGeometry x="220" y="120" width="130" height="120" as="geometry" />
        </mxCell>
        <mxCell id="yz_HRgvOXt4mDNOBBEOG-26" value="" style="endArrow=classic;html=1;rounded=0;" edge="1" parent="1" source="yz_HRgvOXt4mDNOBBEOG-3" target="yz_HRgvOXt4mDNOBBEOG-50">
          <mxGeometry width="50" height="50" relative="1" as="geometry">
            <mxPoint x="90" y="370" as="sourcePoint" />
            <mxPoint x="170" y="350" as="targetPoint" />
          </mxGeometry>
        </mxCell>
        <mxCell id="yz_HRgvOXt4mDNOBBEOG-27" value="&lt;span&gt;Vulnerability Findings&lt;/span&gt;" style="ellipse;whiteSpace=wrap;html=1;strokeWidth=2;" vertex="1" parent="1">
          <mxGeometry x="560" y="270" width="120" height="110" as="geometry" />
        </mxCell>
        <mxCell id="yz_HRgvOXt4mDNOBBEOG-29" value="&lt;span&gt;security vulnerability detection system (auto tracking)&lt;/span&gt;" style="ellipse;whiteSpace=wrap;html=1;strokeWidth=2;" vertex="1" parent="1">
          <mxGeometry x="400" y="150" width="150" height="130" as="geometry" />
        </mxCell>
        <mxCell id="yz_HRgvOXt4mDNOBBEOG-34" value="" style="endArrow=classic;html=1;rounded=0;entryX=0;entryY=0.5;entryDx=0;entryDy=0;" edge="1" parent="1" source="yz_HRgvOXt4mDNOBBEOG-24" target="yz_HRgvOXt4mDNOBBEOG-29">
          <mxGeometry width="50" height="50" relative="1" as="geometry">
            <mxPoint x="390" y="460" as="sourcePoint" />
            <mxPoint x="370" y="230" as="targetPoint" />
          </mxGeometry>
        </mxCell>
        <mxCell id="yz_HRgvOXt4mDNOBBEOG-35" value="" style="endArrow=classic;html=1;rounded=0;exitX=1;exitY=1;exitDx=0;exitDy=0;entryX=0.083;entryY=0.182;entryDx=0;entryDy=0;entryPerimeter=0;" edge="1" parent="1" source="yz_HRgvOXt4mDNOBBEOG-29" target="yz_HRgvOXt4mDNOBBEOG-27">
          <mxGeometry width="50" height="50" relative="1" as="geometry">
            <mxPoint x="390" y="460" as="sourcePoint" />
            <mxPoint x="440" y="410" as="targetPoint" />
          </mxGeometry>
        </mxCell>
        <mxCell id="yz_HRgvOXt4mDNOBBEOG-56" value="" style="edgeStyle=orthogonalEdgeStyle;rounded=0;orthogonalLoop=1;jettySize=auto;html=1;" edge="1" parent="1" source="yz_HRgvOXt4mDNOBBEOG-36" target="yz_HRgvOXt4mDNOBBEOG-16">
          <mxGeometry relative="1" as="geometry" />
        </mxCell>
        <mxCell id="yz_HRgvOXt4mDNOBBEOG-36" value="&lt;span&gt;Notification/daily report&lt;/span&gt;" style="ellipse;whiteSpace=wrap;html=1;strokeWidth=2;" vertex="1" parent="1">
          <mxGeometry x="354" y="475" width="120" height="110" as="geometry" />
        </mxCell>
        <mxCell id="yz_HRgvOXt4mDNOBBEOG-38" value="" style="endArrow=classic;html=1;rounded=0;exitX=0;exitY=0;exitDx=0;exitDy=0;" edge="1" parent="1" source="yz_HRgvOXt4mDNOBBEOG-36">
          <mxGeometry width="50" height="50" relative="1" as="geometry">
            <mxPoint x="130" y="410" as="sourcePoint" />
            <mxPoint x="90" y="450" as="targetPoint" />
          </mxGeometry>
        </mxCell>
        <mxCell id="yz_HRgvOXt4mDNOBBEOG-39" value="" style="endArrow=classic;html=1;rounded=0;entryX=0;entryY=1;entryDx=0;entryDy=0;entryPerimeter=0;exitX=1;exitY=0.5;exitDx=0;exitDy=0;" edge="1" parent="1" source="yz_HRgvOXt4mDNOBBEOG-36" target="yz_HRgvOXt4mDNOBBEOG-4">
          <mxGeometry width="50" height="50" relative="1" as="geometry">
            <mxPoint x="390" y="490" as="sourcePoint" />
            <mxPoint x="440" y="440" as="targetPoint" />
          </mxGeometry>
        </mxCell>
        <mxCell id="yz_HRgvOXt4mDNOBBEOG-42" value="" style="endArrow=classic;html=1;rounded=0;startArrow=none;" edge="1" parent="1" source="yz_HRgvOXt4mDNOBBEOG-57" target="yz_HRgvOXt4mDNOBBEOG-36">
          <mxGeometry width="50" height="50" relative="1" as="geometry">
            <mxPoint x="390" y="440" as="sourcePoint" />
            <mxPoint x="440" y="390" as="targetPoint" />
          </mxGeometry>
        </mxCell>
        <mxCell id="yz_HRgvOXt4mDNOBBEOG-43" value="" style="endArrow=classic;html=1;rounded=0;entryX=0.833;entryY=0.091;entryDx=0;entryDy=0;entryPerimeter=0;" edge="1" parent="1" source="yz_HRgvOXt4mDNOBBEOG-27" target="yz_HRgvOXt4mDNOBBEOG-16">
          <mxGeometry width="50" height="50" relative="1" as="geometry">
            <mxPoint x="390" y="440" as="sourcePoint" />
            <mxPoint x="480" y="370" as="targetPoint" />
          </mxGeometry>
        </mxCell>
        <mxCell id="yz_HRgvOXt4mDNOBBEOG-45" value="3rd services" style="ellipse;whiteSpace=wrap;html=1;strokeWidth=2;" vertex="1" parent="1">
          <mxGeometry x="570" y="100" width="120" height="80" as="geometry" />
        </mxCell>
        <mxCell id="yz_HRgvOXt4mDNOBBEOG-46" value="" style="endArrow=classic;startArrow=classic;html=1;rounded=0;entryX=0.033;entryY=0.65;entryDx=0;entryDy=0;exitX=0.933;exitY=0.255;exitDx=0;exitDy=0;exitPerimeter=0;entryPerimeter=0;" edge="1" parent="1" source="yz_HRgvOXt4mDNOBBEOG-29" target="yz_HRgvOXt4mDNOBBEOG-45">
          <mxGeometry width="50" height="50" relative="1" as="geometry">
            <mxPoint x="390" y="430" as="sourcePoint" />
            <mxPoint x="440" y="380" as="targetPoint" />
          </mxGeometry>
        </mxCell>
        <mxCell id="yz_HRgvOXt4mDNOBBEOG-47" value="" style="endArrow=classic;html=1;rounded=0;" edge="1" parent="1" source="yz_HRgvOXt4mDNOBBEOG-16" target="yz_HRgvOXt4mDNOBBEOG-3">
          <mxGeometry width="50" height="50" relative="1" as="geometry">
            <mxPoint x="390" y="500" as="sourcePoint" />
            <mxPoint x="140" y="420" as="targetPoint" />
          </mxGeometry>
        </mxCell>
        <mxCell id="yz_HRgvOXt4mDNOBBEOG-49" value="Vulnerability security system" style="text;html=1;strokeColor=none;fillColor=none;align=center;verticalAlign=middle;whiteSpace=wrap;rounded=0;" vertex="1" parent="1">
          <mxGeometry x="350" y="50" width="200" height="30" as="geometry" />
        </mxCell>
        <mxCell id="yz_HRgvOXt4mDNOBBEOG-50" value="Contract/payment system" style="ellipse;whiteSpace=wrap;html=1;strokeWidth=2;" vertex="1" parent="1">
          <mxGeometry x="180" y="295" width="120" height="110" as="geometry" />
        </mxCell>
        <mxCell id="yz_HRgvOXt4mDNOBBEOG-51" value="" style="endArrow=classic;html=1;rounded=0;entryX=0.046;entryY=0.727;entryDx=0;entryDy=0;entryPerimeter=0;" edge="1" parent="1" source="yz_HRgvOXt4mDNOBBEOG-50" target="yz_HRgvOXt4mDNOBBEOG-24">
          <mxGeometry width="50" height="50" relative="1" as="geometry">
            <mxPoint x="80" y="397.72727272727275" as="sourcePoint" />
            <mxPoint x="170.8031953165646" y="383.9692128308236" as="targetPoint" />
          </mxGeometry>
        </mxCell>
        <mxCell id="yz_HRgvOXt4mDNOBBEOG-55" value="HSBC/DBS..." style="text;strokeColor=none;fillColor=none;align=left;verticalAlign=middle;spacingLeft=4;spacingRight=4;overflow=hidden;points=[[0,0.5],[1,0.5]];portConstraint=eastwest;rotatable=0;" vertex="1" parent="1">
          <mxGeometry x="20" y="490" width="80" height="30" as="geometry" />
        </mxCell>
        <mxCell id="yz_HRgvOXt4mDNOBBEOG-57" value="Recommend Security solution, vulnerability details" style="ellipse;whiteSpace=wrap;html=1;strokeWidth=2;" vertex="1" parent="1">
          <mxGeometry x="360" y="300" width="130" height="120" as="geometry" />
        </mxCell>
        <mxCell id="yz_HRgvOXt4mDNOBBEOG-59" value="" style="endArrow=classic;html=1;rounded=0;exitX=0.092;exitY=0.782;exitDx=0;exitDy=0;exitPerimeter=0;" edge="1" parent="1" source="yz_HRgvOXt4mDNOBBEOG-27" target="yz_HRgvOXt4mDNOBBEOG-57">
          <mxGeometry width="50" height="50" relative="1" as="geometry">
            <mxPoint x="605" y="380" as="sourcePoint" />
            <mxPoint x="655" y="330" as="targetPoint" />
          </mxGeometry>
        </mxCell>
      </root>
    </mxGraphModel>
  </diagram>
</mxfile>
